<svg xmlns="http://www.w3.org/2000/svg" xmlns:xlink="http://www.w3.org/1999/xlink" width="1080" zoomAndPan="magnify" viewBox="0 0 810 809.999993" height="1080" preserveAspectRatio="xMidYMid meet" version="1.0"><defs><clipPath id="67016aa65f"><path d="M 106 47.578125 L 696 47.578125 L 696 752.578125 L 106 752.578125 Z M 106 47.578125 " clip-rule="nonzero"/></clipPath></defs><g clip-path="url(#67016aa65f)"><path fill="#4f772d" d="M 629.128906 476.480469 C 627.285156 474.640625 627.285156 474.640625 629.128906 476.480469 L 627.285156 437.824219 C 627.285156 426.78125 619.921875 419.417969 608.878906 419.417969 L 579.425781 419.417969 C 549.972656 391.804688 516.839844 373.398438 481.863281 360.511719 C 531.566406 331.058594 566.539062 277.675781 566.539062 215.089844 C 566.539062 123.050781 491.066406 47.578125 399.027344 47.578125 C 306.988281 47.578125 231.515625 123.050781 231.515625 215.089844 C 231.515625 277.675781 264.648438 331.058594 316.191406 360.511719 C 281.21875 371.558594 248.082031 391.804688 218.628906 417.578125 L 189.179688 417.578125 C 178.132812 417.578125 170.769531 424.941406 170.769531 435.984375 L 170.769531 472.800781 C 170.769531 472.800781 168.929688 474.640625 168.929688 474.640625 C 128.433594 533.546875 106.34375 605.335938 106.34375 680.808594 C 106.34375 691.855469 113.707031 699.21875 124.75 699.21875 L 170.769531 699.21875 L 170.769531 734.191406 C 170.769531 745.238281 178.132812 752.601562 189.179688 752.601562 L 612.558594 752.601562 C 623.605469 752.601562 630.96875 745.238281 630.96875 734.191406 L 630.96875 699.21875 L 676.988281 699.21875 C 688.03125 699.21875 695.394531 691.855469 695.394531 680.808594 C 689.875 607.179688 669.625 535.386719 629.128906 476.480469 Z M 266.492188 215.089844 C 266.492188 143.296875 325.398438 84.394531 397.1875 84.394531 C 468.976562 84.394531 527.882812 143.296875 527.882812 215.089844 C 527.882812 286.878906 468.976562 345.785156 397.1875 345.785156 C 325.398438 345.785156 266.492188 288.722656 266.492188 215.089844 Z M 397.1875 384.441406 C 439.527344 384.441406 481.863281 397.328125 518.679688 419.417969 L 275.695312 419.417969 C 312.511719 395.488281 354.847656 384.441406 397.1875 384.441406 Z M 141.316406 664.242188 C 143.15625 623.746094 152.363281 585.089844 167.089844 550.113281 L 167.089844 664.242188 Z M 590.46875 717.625 L 203.902344 717.625 L 203.902344 456.234375 L 590.46875 456.234375 Z M 627.285156 664.242188 L 627.285156 550.113281 C 642.011719 585.089844 651.214844 623.746094 653.058594 664.242188 Z M 627.285156 664.242188 " fill-opacity="1" fill-rule="nonzero"/></g><path fill="#4f772d" d="M 397.1875 636.632812 C 428.480469 636.632812 452.410156 610.859375 452.410156 581.40625 C 452.410156 577.726562 452.410156 574.042969 450.570312 570.363281 C 445.046875 574.042969 439.527344 577.726562 432.164062 577.726562 C 417.4375 577.726562 404.550781 564.839844 404.550781 550.113281 C 404.550781 542.75 408.230469 535.386719 413.753906 529.863281 C 408.230469 528.023438 402.710938 526.183594 395.347656 526.183594 C 364.054688 526.183594 340.121094 551.953125 340.121094 581.40625 C 341.964844 612.699219 367.734375 636.632812 397.1875 636.632812 Z M 397.1875 636.632812 " fill-opacity="1" fill-rule="nonzero"/></svg>