<svg xmlns="http://www.w3.org/2000/svg" xmlns:xlink="http://www.w3.org/1999/xlink" width="1080" zoomAndPan="magnify" viewBox="0 0 810 809.999993" height="1080" preserveAspectRatio="xMidYMid meet" version="1.0"><defs><clipPath id="228c445e7f"><path d="M 413 178 L 633 178 L 633 397 L 413 397 Z M 413 178 " clip-rule="nonzero"/></clipPath><clipPath id="a8fe9e42b0"><path d="M 10.550781 403.851562 L 572.550781 11.335938 L 799.726562 336.609375 L 237.726562 729.121094 Z M 10.550781 403.851562 " clip-rule="nonzero"/></clipPath><clipPath id="3739d10083"><path d="M 10.550781 403.851562 L 572.550781 11.335938 L 799.726562 336.609375 L 237.726562 729.121094 Z M 10.550781 403.851562 " clip-rule="nonzero"/></clipPath><clipPath id="9095bf542f"><path d="M 113 89 L 722 89 L 722 681 L 113 681 Z M 113 89 " clip-rule="nonzero"/></clipPath><clipPath id="8469b8cf84"><path d="M 10.550781 403.851562 L 572.550781 11.335938 L 799.726562 336.609375 L 237.726562 729.121094 Z M 10.550781 403.851562 " clip-rule="nonzero"/></clipPath><clipPath id="75ac1db99d"><path d="M 10.550781 403.851562 L 572.550781 11.335938 L 799.726562 336.609375 L 237.726562 729.121094 Z M 10.550781 403.851562 " clip-rule="nonzero"/></clipPath><clipPath id="d406ee020f"><path d="M 170 511 L 201 511 L 201 542 L 170 542 Z M 170 511 " clip-rule="nonzero"/></clipPath><clipPath id="087acca0b1"><path d="M 10.550781 403.851562 L 572.550781 11.335938 L 799.726562 336.609375 L 237.726562 729.121094 Z M 10.550781 403.851562 " clip-rule="nonzero"/></clipPath><clipPath id="e1fefc87eb"><path d="M 10.550781 403.851562 L 572.550781 11.335938 L 799.726562 336.609375 L 237.726562 729.121094 Z M 10.550781 403.851562 " clip-rule="nonzero"/></clipPath></defs><g clip-path="url(#228c445e7f)"><g clip-path="url(#a8fe9e42b0)"><g clip-path="url(#3739d10083)"><path fill="#4f772d" d="M 592.695312 300.289062 C 589.386719 318.933594 579.003906 335.191406 563.484375 346.03125 C 531.425781 368.429688 487.121094 360.558594 464.734375 328.503906 C 453.886719 312.972656 449.742188 294.144531 453.046875 275.492188 C 456.359375 256.839844 466.734375 240.59375 482.269531 229.746094 C 497.796875 218.894531 516.625 214.742188 535.269531 218.054688 C 553.921875 221.367188 570.171875 231.746094 581.011719 247.289062 C 591.863281 262.816406 596.007812 281.636719 592.695312 300.289062 Z M 460.378906 198.414062 C 436.480469 215.109375 420.507812 240.109375 415.414062 268.816406 C 410.320312 297.515625 416.703125 326.488281 433.390625 350.394531 C 467.847656 399.726562 536.03125 411.832031 585.363281 377.378906 C 609.261719 360.679688 625.234375 335.679688 630.332031 306.972656 C 635.429688 278.273438 629.042969 249.296875 612.351562 225.398438 C 595.65625 201.492188 570.660156 185.515625 541.960938 180.421875 C 513.257812 175.324219 484.285156 181.71875 460.378906 198.414062 " fill-opacity="1" fill-rule="nonzero"/></g></g></g><g clip-path="url(#9095bf542f)"><g clip-path="url(#8469b8cf84)"><g clip-path="url(#75ac1db99d)"><path fill="#4f772d" d="M 680.507812 315.882812 C 673.027344 357.988281 649.605469 394.65625 614.539062 419.152344 C 553.46875 461.804688 465.726562 452.265625 406.25 398.566406 L 375.898438 421.488281 C 361.671875 431.382812 342.25 445.078125 333.679688 452 C 324.546875 459.378906 312.15625 470.8125 331.851562 499.007812 L 375.789062 561.921875 C 381.996094 570.804688 379.824219 583.035156 370.9375 589.242188 C 362.054688 595.453125 349.820312 593.277344 343.613281 584.390625 L 299.675781 521.480469 C 299.675781 521.480469 285.402344 498.425781 268.28125 508.324219 C 251.15625 518.222656 240.582031 527.667969 240.582031 527.667969 C 240.582031 527.667969 229.75 540.503906 244.515625 560.007812 C 255.582031 574.628906 286.519531 620.148438 286.519531 620.148438 C 292.726562 629.035156 290.558594 641.261719 281.667969 647.472656 C 272.789062 653.679688 262.085938 649.261719 255.886719 640.371094 L 215.175781 576.980469 L 202.832031 556.546875 C 202.832031 556.546875 168.101562 576.800781 154.289062 550.625 C 151 544.398438 147.949219 536.964844 151.140625 525.804688 C 152.9375 519.539062 156.363281 512.800781 162.128906 508.773438 L 356.847656 372.777344 L 379.40625 357.679688 C 366.019531 328.394531 359.488281 292.28125 365.238281 259.90625 C 372.71875 217.785156 396.140625 181.117188 431.203125 156.636719 C 466.257812 132.140625 508.757812 122.765625 550.867188 130.242188 C 592.972656 137.71875 629.644531 161.152344 654.125 196.222656 C 678.617188 231.277344 687.984375 273.765625 680.507812 315.882812 Z M 557.542969 92.605469 C 505.390625 83.351562 452.742188 94.964844 409.324219 125.292969 C 365.886719 155.628906 336.867188 201.058594 327.601562 253.222656 C 322.082031 284.289062 324.269531 314.125 333.195312 342.667969 L 140.242188 477.433594 C 125.820312 487.503906 116.84375 502.46875 113.996094 518.519531 C 111.148438 534.570312 114.421875 551.71875 124.492188 566.128906 C 138.277344 585.875 161.21875 595.113281 183.578125 592.703125 L 230.214844 659.472656 C 245.730469 681.6875 276.3125 687.117188 298.523438 671.597656 C 320.730469 656.097656 326.167969 625.492188 310.65625 603.296875 L 268.648438 543.148438 L 275.546875 538.332031 L 319.484375 601.246094 C 334.996094 623.460938 365.578125 628.890625 387.789062 613.375 C 410 597.875 415.433594 567.269531 399.921875 545.070312 L 355.980469 482.15625 L 405.789062 447.367188 C 472.675781 494.855469 566.003906 499.671875 636.429688 450.484375 C 679.859375 420.144531 708.878906 374.714844 718.140625 322.566406 C 727.402344 270.402344 715.800781 217.757812 685.46875 174.335938 C 655.140625 130.898438 609.707031 101.867188 557.542969 92.605469 " fill-opacity="1" fill-rule="nonzero"/></g></g></g><g clip-path="url(#d406ee020f)"><g clip-path="url(#087acca0b1)"><g clip-path="url(#e1fefc87eb)"><path fill="#4f772d" d="M 176.71875 514.265625 C 169.820312 519.085938 168.136719 528.578125 172.953125 535.476562 C 177.773438 542.378906 187.265625 544.066406 194.167969 539.246094 C 201.066406 534.429688 202.757812 524.929688 197.9375 518.027344 C 193.121094 511.132812 183.617188 509.449219 176.71875 514.265625 " fill-opacity="1" fill-rule="nonzero"/></g></g></g></svg>