<svg xmlns="http://www.w3.org/2000/svg" xmlns:xlink="http://www.w3.org/1999/xlink" width="1080" zoomAndPan="magnify" viewBox="0 0 810 809.999993" height="1080" preserveAspectRatio="xMidYMid meet" version="1.0"><defs><clipPath id="7953779ab6"><path d="M 100.152344 40.507812 L 709.902344 40.507812 L 709.902344 769.507812 L 100.152344 769.507812 Z M 100.152344 40.507812 " clip-rule="nonzero"/></clipPath></defs><g clip-path="url(#7953779ab6)"><path fill="#4f772d" d="M 625.207031 462.367188 C 623.519531 462.367188 623.519531 462.367188 625.207031 462.367188 L 623.519531 447.179688 C 623.519531 438.742188 616.769531 431.992188 608.332031 430.304688 C 603.273438 430.304688 598.210938 428.621094 593.148438 428.621094 C 593.148438 428.621094 591.460938 426.933594 591.460938 426.933594 C 559.398438 398.246094 523.960938 377.996094 486.835938 366.183594 C 540.835938 337.496094 577.960938 280.125 577.960938 214.3125 C 577.960938 118.128906 500.335938 40.507812 404.152344 40.507812 C 307.96875 40.507812 230.347656 118.128906 230.347656 214.3125 C 230.347656 280.125 267.46875 337.496094 321.46875 366.183594 C 284.34375 377.996094 248.90625 398.246094 216.847656 425.246094 C 216.847656 425.246094 215.160156 426.933594 215.160156 428.621094 C 210.097656 428.621094 205.035156 428.621094 199.972656 430.304688 C 191.535156 431.992188 184.785156 438.742188 184.785156 447.179688 L 184.785156 460.679688 C 183.097656 462.367188 181.410156 462.367188 181.410156 464.054688 C 130.785156 529.867188 100.414062 619.300781 100.414062 703.671875 C 100.414062 713.796875 107.164062 720.546875 117.289062 720.546875 L 186.472656 720.546875 C 186.472656 723.921875 188.160156 727.296875 191.535156 728.984375 C 194.910156 732.359375 199.972656 734.046875 205.035156 734.046875 C 324.84375 722.234375 395.714844 766.109375 395.714844 767.796875 C 395.714844 767.796875 397.402344 767.796875 397.402344 769.484375 C 397.402344 769.484375 399.089844 769.484375 399.089844 769.484375 C 400.777344 769.484375 400.777344 769.484375 402.464844 769.484375 C 402.464844 769.484375 404.152344 769.484375 404.152344 769.484375 C 405.839844 769.484375 407.527344 769.484375 409.214844 769.484375 C 409.214844 769.484375 409.214844 769.484375 410.902344 769.484375 C 412.589844 769.484375 412.589844 769.484375 414.277344 767.796875 C 414.277344 767.796875 485.152344 722.234375 604.960938 734.046875 C 610.019531 734.046875 615.082031 732.359375 618.457031 728.984375 C 620.144531 727.296875 621.832031 723.921875 623.519531 720.546875 L 692.707031 720.546875 C 702.832031 720.546875 709.582031 713.796875 709.582031 703.671875 C 709.582031 612.550781 679.207031 526.492188 625.207031 462.367188 Z M 264.09375 214.3125 C 264.09375 136.691406 326.53125 74.253906 404.152344 74.253906 C 481.777344 74.253906 544.210938 136.691406 544.210938 214.3125 C 544.210938 291.9375 481.777344 354.371094 404.152344 354.371094 C 326.53125 354.371094 264.09375 291.9375 264.09375 214.3125 Z M 537.460938 428.621094 C 468.277344 433.679688 422.714844 453.929688 404.152344 464.054688 C 385.589844 453.929688 340.03125 433.679688 270.84375 428.621094 C 311.34375 401.621094 356.90625 388.121094 404.152344 388.121094 C 451.402344 388.121094 496.960938 401.621094 537.460938 428.621094 Z M 184.785156 519.742188 L 184.785156 686.796875 L 134.160156 686.796875 C 135.847656 629.425781 154.410156 568.675781 184.785156 519.742188 Z M 589.773438 698.609375 C 491.898438 691.859375 427.777344 720.546875 404.152344 734.046875 C 380.527344 722.234375 316.40625 693.546875 218.535156 698.609375 L 218.535156 462.367188 C 328.21875 455.617188 394.027344 496.117188 395.714844 496.117188 C 397.402344 496.117188 399.089844 497.804688 399.089844 497.804688 C 399.089844 497.804688 400.777344 497.804688 400.777344 497.804688 C 402.464844 497.804688 404.152344 497.804688 405.839844 497.804688 C 405.839844 497.804688 407.527344 497.804688 407.527344 497.804688 C 409.214844 497.804688 410.902344 496.117188 412.589844 496.117188 C 412.589844 496.117188 412.589844 496.117188 414.277344 496.117188 C 415.964844 494.429688 480.089844 453.929688 589.773438 462.367188 Z M 623.519531 686.796875 L 623.519531 519.742188 C 653.894531 568.675781 672.457031 626.050781 674.144531 686.796875 Z M 623.519531 686.796875 " fill-opacity="1" fill-rule="nonzero"/></g></svg>